<?xml version="1.0" encoding="UTF-8"?><svg id="Layer_2" xmlns="http://www.w3.org/2000/svg" viewBox="0 0 190.69 24.2"><defs><style>.cls-1{fill:#231f20;stroke-width:0px;}</style></defs><g id="Layer_1-2"><path class="cls-1" d="m7.84,12.2c0,4.7,1.13,9.75,6.37,9.75,3.14,0,5.83-2.45,7.5-4.9l1.57.98c-1.96,3.63-4.75,6.17-10.44,6.17C4.51,24.2,0,17.64,0,12.1S4.51,0,12.84,0c5.98,0,10.58,4.41,10.58,12.2H7.84Zm7.74-2.25c0-6.12-1.18-8.18-3.53-8.18s-3.82,2.55-4.21,8.18h7.74Z"/><path class="cls-1" d="m35.33,12.2c0,4.7,1.13,9.75,6.37,9.75,3.14,0,5.83-2.45,7.5-4.9l1.57.98c-1.96,3.63-4.75,6.17-10.44,6.17-8.33,0-12.84-6.57-12.84-12.1S32,0,40.33,0c5.98,0,10.58,4.41,10.58,12.2h-15.58Zm7.74-2.25c0-6.12-1.18-8.18-3.53-8.18s-3.82,2.55-4.21,8.18h7.74Z"/><path class="cls-1" d="m59.19,1.27c2.25,0,4.07,1.81,4.07,4.07s-1.81,4.07-4.07,4.07-4.07-1.81-4.07-4.07,1.81-4.07,4.07-4.07Zm0,14.6c2.25,0,4.07,1.81,4.07,4.07s-1.81,4.07-4.07,4.07-4.07-1.81-4.07-4.07,1.81-4.07,4.07-4.07Z"/><path class="cls-1" d="m68.15,15.19h1.81c.83,3.53,3.97,7.06,7.99,7.06,2.45,0,4.8-1.27,4.8-3.09,0-5.98-14.7-.88-14.7-11.27,0-4.36,4.12-7.89,9.46-7.89,3.38,0,5.34,1.76,6.17,1.76.78,0,.83-.49,1.13-1.18h1.96v7.55h-1.96c-1.37-3.33-3.09-6.17-7.15-6.17-2.45,0-3.92,1.47-3.92,3.28,0,4.95,14.7.83,14.7,10.88,0,5.14-5.05,8.08-9.85,8.08-4.36,0-6.47-1.67-7.35-1.67-.54,0-.98.74-1.13,1.37h-1.96v-8.72Z"/><path class="cls-1" d="m104.8,24.2c-8.33,0-12.84-6.57-12.84-12.1S96.47,0,104.8,0s12.84,6.57,12.84,12.1-4.51,12.1-12.84,12.1Zm0-22.44c-3.04,0-4.61,3.92-4.61,10.34s1.57,10.34,4.61,10.34,4.61-3.92,4.61-10.34-1.57-10.34-4.61-10.34Z"/><path class="cls-1" d="m120.38,23.62v-1.96c3.66,0,4.2-.98,4.2-3.23V5.78c0-2.25-.54-3.23-4.2-3.23V.78l11.21-.2v3.14h.11c1.35-2.11,4.37-3.72,7.17-3.72,3.13,0,5.66,1.32,6.95,3.92,1.56-2.45,4.2-3.92,7.33-3.92,4.1,0,7.54,2.16,7.54,6.66v11.76c0,2.25.54,3.23,3.67,3.23v1.96h-11.1V7.25c0-3.72-.54-4.61-2.43-4.61s-4.47,2.55-4.47,6.27v9.51c0,2.25.54,3.23,3.66,3.23v1.96h-11.1V7.25c0-3.72-.54-4.61-2.43-4.61s-4.47,2.55-4.47,6.27v9.51c0,2.25.54,3.23,3.99,3.23v1.96h-15.63Z"/><path class="cls-1" d="m175.11,12.2c0,4.7,1.13,9.75,6.37,9.75,3.14,0,5.83-2.45,7.5-4.9l1.57.98c-1.96,3.63-4.75,6.17-10.44,6.17-8.33,0-12.84-6.57-12.84-12.1s4.51-12.1,12.84-12.1c5.98,0,10.58,4.41,10.58,12.2h-15.58Zm7.74-2.25c0-6.12-1.18-8.18-3.53-8.18s-3.82,2.55-4.21,8.18h7.74Z"/></g></svg>