<svg width="190" height="24" viewBox="0 0 190 24" fill="none" xmlns="http://www.w3.org/2000/svg">
<g clip-path="url(#clip0_87_845)">
<path d="M7.77521 12.0992C7.77521 16.7603 8.89587 21.7686 14.0926 21.7686C17.2066 21.7686 19.8744 19.3388 21.5306 16.9091L23.0876 17.881C21.1438 21.481 18.3769 24 12.7339 24C4.47273 24 0 17.4942 0 12C0 6.50579 4.47273 0 12.7339 0C18.6645 0 23.2264 4.37355 23.2264 12.0992H7.77521ZM15.4512 9.86777C15.4512 3.79835 14.281 1.75537 11.9504 1.75537C9.61983 1.75537 8.16198 4.2843 7.77521 9.86777H15.4512Z" fill="#232020"/>
<path d="M35.0379 12.0992C35.0379 16.7603 36.1586 21.7686 41.3553 21.7686C44.4693 21.7686 47.1371 19.3388 48.7933 16.9091L50.3503 17.881C48.4065 21.481 45.6396 24 39.9966 24C31.7354 24 27.2627 17.4843 27.2627 12C27.2627 6.5157 31.7354 0 39.9966 0C45.9272 0 50.4891 4.37355 50.4891 12.0992H35.0379ZM42.7139 9.86777C42.7139 3.79835 41.5437 1.75537 39.2131 1.75537C36.8825 1.75537 35.4247 4.2843 35.0379 9.86777H42.7139Z" fill="#232020"/>
<path d="M58.7009 1.25949C60.9323 1.25949 62.7373 3.05453 62.7373 5.29585C62.7373 7.53718 60.9422 9.33222 58.7009 9.33222C56.4596 9.33222 54.6646 7.53718 54.6646 5.29585C54.6646 3.05453 56.4596 1.25949 58.7009 1.25949ZM58.7009 15.7388C60.9323 15.7388 62.7373 17.5339 62.7373 19.7752C62.7373 22.0165 60.9422 23.8116 58.7009 23.8116C56.4596 23.8116 54.6646 22.0165 54.6646 19.7752C54.6646 17.5339 56.4596 15.7388 58.7009 15.7388Z" fill="#232020"/>
<path d="M67.5867 15.0645H69.3818C70.2049 18.5653 73.3189 22.0661 77.3057 22.0661C79.7355 22.0661 82.0661 20.8066 82.0661 19.0017C82.0661 13.0711 67.4875 18.1289 67.4875 7.82479C67.4875 3.50083 71.5735 0 76.8694 0C80.2214 0 82.1652 1.74545 82.9884 1.74545C83.7619 1.74545 83.8115 1.2595 84.109 0.575207H86.0528V8.06281H84.109C82.7504 4.76033 81.0446 1.9438 77.0181 1.9438C74.5884 1.9438 73.1305 3.40165 73.1305 5.19669C73.1305 10.1058 87.709 6.01984 87.709 15.9868C87.709 21.0843 82.7008 24 77.9404 24C73.6165 24 71.5239 22.3438 70.6512 22.3438C70.1156 22.3438 69.6793 23.0777 69.5305 23.7025H67.5867V15.0545V15.0645Z" fill="#232020"/>
<path d="M103.934 24C95.6727 24 91.2 17.4843 91.2 12C91.2 6.5157 95.6727 0 103.934 0C112.195 0 116.668 6.5157 116.668 12C116.668 17.4843 112.195 24 103.934 24ZM103.934 1.74545C100.919 1.74545 99.3619 5.63306 99.3619 12C99.3619 18.3669 100.919 22.2545 103.934 22.2545C106.949 22.2545 108.506 18.3669 108.506 12C108.506 5.63306 106.949 1.74545 103.934 1.74545Z" fill="#232020"/>
<path d="M119.385 23.4248V21.481C123.015 21.481 123.55 20.5091 123.55 18.2777V5.73223C123.55 3.50083 123.015 2.52893 119.385 2.52893V0.773554L130.502 0.575207V3.68926H130.611C131.95 1.59669 134.945 0 137.722 0C140.826 0 143.335 1.30909 144.615 3.8876C146.162 1.45785 148.78 0 151.884 0C155.95 0 159.362 2.14215 159.362 6.60496V18.2678C159.362 20.4992 159.897 21.4711 163.002 21.4711V23.4149H151.993V7.19008C151.993 3.50083 151.458 2.61818 149.583 2.61818C147.709 2.61818 145.15 5.14711 145.15 8.83636V18.2678C145.15 20.4992 145.686 21.4711 148.78 21.4711V23.4149H137.772V7.19008C137.772 3.50083 137.236 2.61818 135.362 2.61818C133.487 2.61818 130.929 5.14711 130.929 8.83636V18.2678C130.929 20.4992 131.464 21.4711 134.886 21.4711V23.4149H119.385V23.4248Z" fill="#232020"/>
<path d="M173.663 12.0992C173.663 16.7603 174.784 21.7686 179.98 21.7686C183.094 21.7686 185.762 19.3388 187.418 16.9091L188.975 17.881C187.031 21.481 184.265 24 178.622 24C170.36 24 165.888 17.4843 165.888 12C165.888 6.5157 170.36 0 178.622 0C184.552 0 189.114 4.37355 189.114 12.0992H173.663ZM181.339 9.86777C181.339 3.79835 180.169 1.75537 177.838 1.75537C175.508 1.75537 174.05 4.2843 173.663 9.86777H181.339Z" fill="#232020"/>
</g>
<defs>
<clipPath id="clip0_87_845">
<rect width="189.114" height="24" fill="white"/>
</clipPath>
</defs>
</svg>
