<svg width="422" height="169" viewBox="0 0 422 169" fill="none" xmlns="http://www.w3.org/2000/svg">
<path d="M114.145 61.9754C115.748 60.0453 117.473 58.0043 119.303 55.8413C121.133 53.6782 122.972 51.4375 124.81 49.097C126.64 46.7676 128.409 44.3383 130.108 41.8314C131.807 39.3245 133.306 36.7289 134.613 34.0334C135.92 31.349 136.966 28.587 137.741 25.7584C138.517 22.9298 138.909 20.0236 138.909 17.0508C138.909 14.7768 138.621 12.8467 138.046 11.2716C137.471 9.69645 136.739 8.40972 135.842 7.42249C134.944 6.43525 133.942 5.71424 132.818 5.28163C131.694 4.84902 130.561 4.62717 129.411 4.62717C127.485 4.62717 125.568 5.1818 123.669 6.29105C121.769 7.4003 120.105 8.97544 118.685 11.0165L118.205 10.2289C118.981 9.06418 119.87 7.93274 120.854 6.85677C121.839 5.78079 122.902 4.82684 124.052 4.00599C125.194 3.18515 126.44 2.53069 127.764 2.03153C129.097 1.53237 130.518 1.28833 132.025 1.28833C133.532 1.28833 134.961 1.59892 136.286 2.20901C137.619 2.8191 138.787 3.71759 139.797 4.8823C140.808 6.04701 141.61 7.47795 142.202 9.1751C142.795 10.8723 143.1 12.7691 143.1 14.8656C143.1 17.8383 142.673 20.7779 141.828 23.6619C140.982 26.5571 139.858 29.3746 138.456 32.1144C137.053 34.8542 135.449 37.5054 133.637 40.0344C131.825 42.5746 130.003 44.9706 128.165 47.2113C126.326 49.4631 124.54 51.5596 122.797 53.5118C121.055 55.4641 119.521 57.2056 118.188 58.7253H134.491C136.19 58.7253 137.576 58.57 138.656 58.2483C139.736 57.9267 140.617 57.4164 141.305 56.7176C141.993 56.0187 142.534 55.1424 142.926 54.0886C143.318 53.0349 143.675 51.8147 143.989 50.4059L144.677 50.4947L143.649 63.1956H114.136V61.9643L114.145 61.9754Z" fill="white" stroke="white" stroke-width="0.99" stroke-miterlimit="10"/>
<path d="M170.626 64.0831C168.152 64.0831 165.659 63.4287 163.159 62.1087C160.658 60.7998 158.41 58.8142 156.414 56.152C154.419 53.5009 152.807 50.1953 151.561 46.2575C150.324 42.3196 149.705 37.7163 149.705 32.4695C149.705 27.7996 150.245 23.5511 151.326 19.7242C152.406 15.8973 153.861 12.6361 155.691 9.91844C157.521 7.20077 159.656 5.0932 162.087 3.57352C164.518 2.05385 167.088 1.29956 169.79 1.29956C172.264 1.29956 174.756 1.95402 177.257 3.27403C179.758 4.58294 182.006 6.5685 184.001 9.2307C185.997 11.8929 187.609 15.1874 188.855 19.1252C190.092 23.0631 190.711 27.6664 190.711 32.9132C190.711 37.5277 190.171 41.7539 189.09 45.6141C188.01 49.4632 186.554 52.7466 184.725 55.4643C182.886 58.1819 180.76 60.3006 178.329 61.8092C175.898 63.3288 173.327 64.0831 170.626 64.0831ZM153.635 27.2117C153.591 31.7596 154.027 36.1633 154.942 40.3895C155.857 44.6269 157.155 48.3761 158.828 51.6373C160.501 54.9096 162.523 57.5164 164.884 59.4797C167.245 61.432 169.825 62.4082 172.622 62.4082C175.053 62.4082 177.153 61.787 178.913 60.5224C180.682 59.269 182.137 57.5497 183.278 55.3533C184.42 53.1681 185.282 50.5947 185.857 47.644C186.432 44.6934 186.737 41.5321 186.79 38.1378C186.833 33.5788 186.398 29.1861 185.483 24.9599C184.568 20.7225 183.278 16.9733 181.631 13.7121C179.984 10.4398 178.006 7.83305 175.715 5.86967C173.423 3.91739 170.896 2.94125 168.152 2.94125C165.625 2.94125 163.464 3.57352 161.651 4.82698C159.839 6.08043 158.349 7.79977 157.181 9.99608C156.014 12.1813 155.142 14.7548 154.567 17.7054C153.992 20.656 153.687 23.8173 153.635 27.2117Z" fill="white" stroke="white" stroke-width="0.99" stroke-miterlimit="10"/>
<path d="M192.087 61.9754C193.691 60.0453 195.416 58.0043 197.246 55.8413C199.076 53.6782 200.914 51.4375 202.753 49.097C204.583 46.7676 206.351 44.3383 208.051 41.8314C209.75 39.3245 211.248 36.7289 212.555 34.0334C213.863 31.349 214.908 28.587 215.684 25.7584C216.459 22.9298 216.851 20.0236 216.851 17.0508C216.851 14.7768 216.564 12.8467 215.989 11.2716C215.414 9.69645 214.682 8.40972 213.784 7.42249C212.887 6.43525 211.885 5.71424 210.761 5.28163C209.636 4.84902 208.504 4.62717 207.354 4.62717C205.428 4.62717 203.511 5.1818 201.611 6.29105C199.712 7.4003 198.047 8.97544 196.627 11.0165L196.148 10.2289C196.923 9.06418 197.812 7.93274 198.797 6.85677C199.781 5.78079 200.845 4.82684 201.995 4.00599C203.136 3.18515 204.382 2.53069 205.707 2.03153C207.04 1.53237 208.46 1.28833 209.968 1.28833C211.475 1.28833 212.904 1.59892 214.228 2.20901C215.562 2.8191 216.729 3.71759 217.74 4.8823C218.751 6.04701 219.552 7.47795 220.145 9.1751C220.737 10.8723 221.042 12.7691 221.042 14.8656C221.042 17.8383 220.615 20.7779 219.77 23.6619C218.925 26.5571 217.801 29.3746 216.398 32.1144C214.995 34.8542 213.392 37.5054 211.58 40.0344C209.767 42.5746 207.946 44.9706 206.107 47.2113C204.269 49.4631 202.483 51.5596 200.74 53.5118C198.997 55.4641 197.464 57.2056 196.131 58.7253H212.433C214.133 58.7253 215.518 58.57 216.599 58.2483C217.679 57.9267 218.559 57.4164 219.247 56.7176C219.936 56.0187 220.476 55.1424 220.868 54.0886C221.26 53.0349 221.618 51.8147 221.931 50.4059L222.62 50.4947L221.591 63.1956H192.079V61.9643L192.087 61.9754Z" fill="white" stroke="white" stroke-width="0.99" stroke-miterlimit="10"/>
<path d="M225.582 46.8343L251.523 1.29956H252.49V45.0817H257.239L257.308 45.2592L256.829 46.4017C256.507 47.2225 255.958 47.6219 255.182 47.6219H252.498V52.0921C252.498 54.0777 252.559 55.6972 252.673 56.9507C252.786 58.2041 252.952 59.2024 253.152 59.9234C253.361 60.6556 253.649 61.1769 254.015 61.4986C254.381 61.8203 254.79 62.0643 255.252 62.2418V63.2068H245.894V62.2418C246.399 62.0643 246.826 61.8203 247.166 61.4986C247.506 61.1769 247.784 60.6556 247.994 59.9234C248.203 59.1913 248.36 58.2041 248.473 56.9507C248.586 55.6972 248.647 54.0777 248.647 52.0921V47.7106H225.948L225.6 46.8343H225.582ZM248.63 45.0817V8.38767L227.787 45.0817H248.63Z" fill="white" stroke="white" stroke-width="0.99" stroke-miterlimit="10"/>
<path d="M18.5837 64.083C16.7452 64.083 15.0199 63.8722 13.3905 63.4729C11.761 63.0625 10.271 62.5522 8.92043 61.9421C7.56983 61.3321 6.36737 60.6554 5.31303 59.9233C4.25869 59.1912 3.3612 58.5035 2.62927 57.8601L2.15002 46.6456L2.83839 46.5568C3.43091 48.6644 4.17156 50.6833 5.04291 52.6466C5.91426 54.5989 7.00345 56.3293 8.31048 57.8157C9.61751 59.3021 11.1859 60.5001 13.0245 61.4097C14.8543 62.3193 17.0327 62.763 19.5596 62.763C21.1193 62.763 22.5832 62.4524 23.96 61.8423C25.3367 61.2322 26.5392 60.367 27.5674 59.2578C28.5955 58.1485 29.4146 56.8507 30.0071 55.3643C30.5997 53.8779 30.9046 52.2584 30.9046 50.5058C30.9046 48.2873 30.4602 46.3461 29.5627 44.6822C28.6653 43.0183 27.5325 41.543 26.1558 40.2563C24.779 38.9696 23.2629 37.8603 21.616 36.9285C19.9605 35.9968 18.3833 35.1427 16.8672 34.3884C14.5319 33.2237 12.5104 32.0589 10.8113 30.8831C9.11212 29.7184 7.71796 28.465 6.61134 27.1228C5.51344 25.7806 4.68566 24.3053 4.13671 22.6969C3.58775 21.0884 3.30892 19.236 3.30892 17.1395C3.30892 14.7435 3.6836 12.5694 4.44168 10.6171C5.19975 8.66485 6.27152 7.00097 7.67439 5.6255C9.06856 4.25003 10.7328 3.18515 12.6585 2.43086C14.5842 1.67657 16.719 1.28833 19.0542 1.28833C20.9364 1.28833 22.6181 1.45472 24.1081 1.76531C25.5981 2.08699 26.9051 2.48632 28.0292 2.95221C29.1532 3.41809 30.103 3.90616 30.8872 4.39423C31.6627 4.89339 32.2639 5.31491 32.6735 5.65878L32.9523 14.4995L32.4034 14.677C31.8544 13.1573 31.1747 11.682 30.3731 10.2511C29.5715 8.82014 28.5868 7.53341 27.4192 6.40197C26.2516 5.27054 24.84 4.33877 23.1845 3.63994C21.5289 2.94111 19.5596 2.58615 17.268 2.58615C15.8477 2.58615 14.4971 2.83019 13.2075 3.32935C11.9266 3.82851 10.7764 4.5828 9.76564 5.60331C8.75487 6.62382 7.95323 7.89946 7.36071 9.40804C6.76819 10.9277 6.46321 12.7025 6.46321 14.7546C6.46321 16.9177 6.87275 18.7812 7.70053 20.3563C8.52832 21.9315 9.58265 23.307 10.8635 24.4717C12.1444 25.6364 13.5996 26.6902 15.229 27.6219C16.8584 28.5537 18.453 29.43 20.0127 30.2509C22.0778 31.3046 23.9687 32.3695 25.6852 33.4455C27.4018 34.5215 28.8918 35.7416 30.1553 37.0838C31.4187 38.426 32.4034 39.9457 33.1091 41.6318C33.8237 43.3289 34.1722 45.3145 34.1722 47.5884C34.1722 50.0399 33.7452 52.2695 32.9 54.2883C32.0548 56.3071 30.9133 58.0265 29.493 59.4574C28.0727 60.8884 26.4172 62.0087 24.5438 62.8295C22.6616 63.6504 20.6662 64.0497 18.5576 64.0497L18.5837 64.083Z" fill="white" stroke="white" stroke-width="0.99" stroke-miterlimit="10"/>
<path d="M62.4215 1L41.6136 64.2606H42.6069L63.4148 1H62.4215Z" fill="white" stroke="white" stroke-width="0.99" stroke-miterlimit="10"/>
<path d="M82.968 64.083C81.1295 64.083 79.4042 63.8722 77.7748 63.4729C76.1453 63.0625 74.6553 62.5522 73.3047 61.9421C71.9541 61.3321 70.7517 60.6554 69.6973 59.9233C68.643 59.1912 67.7455 58.5035 67.0136 57.8601L66.5343 46.6456L67.2227 46.5568C67.8152 48.6644 68.5559 50.6833 69.4272 52.6466C70.2986 54.5989 71.3877 56.3293 72.6948 57.8157C74.0018 59.3021 75.5702 60.5001 77.4088 61.4097C79.2386 62.3193 81.417 62.763 83.9439 62.763C85.5036 62.763 86.9675 62.4524 88.3442 61.8423C89.721 61.2322 90.9234 60.367 91.9516 59.2578C92.9798 58.1485 93.7989 56.8507 94.3914 55.3643C94.9839 53.8779 95.2889 52.2584 95.2889 50.5058C95.2889 48.2873 94.8445 46.3461 93.947 44.6822C93.0495 43.0183 91.9168 41.543 90.5401 40.2563C89.1633 38.9696 87.6472 37.8603 86.0003 36.9285C84.3535 35.9968 82.7676 35.1427 81.2514 34.3884C78.9162 33.2237 76.8947 32.0589 75.1956 30.8831C73.4964 29.7184 72.1023 28.465 70.9956 27.1228C69.8977 25.7806 69.0699 24.3053 68.521 22.6969C67.972 21.0884 67.6932 19.236 67.6932 17.1395C67.6932 14.7435 68.0679 12.5694 68.826 10.6171C69.584 8.66485 70.6558 7.00097 72.0587 5.6255C73.4529 4.25003 75.1171 3.18515 77.0428 2.43086C78.9685 1.67657 81.1033 1.28833 83.4385 1.28833C85.3207 1.28833 87.0024 1.45472 88.4924 1.76531C89.9824 2.08699 91.2894 2.48632 92.4135 2.95221C93.5375 3.41809 94.4873 3.90616 95.2715 4.39423C96.047 4.89339 96.6482 5.31491 97.0578 5.65878L97.3366 14.4995L96.7876 14.677C96.2387 13.1573 95.559 11.682 94.7574 10.2511C93.9558 8.82014 92.9711 7.53341 91.7948 6.40197C90.6272 5.25945 89.2156 4.33877 87.56 3.63994C85.9045 2.94111 83.9352 2.58615 81.6436 2.58615C80.2233 2.58615 78.8727 2.83019 77.5831 3.32935C76.3022 3.82851 75.152 4.5828 74.1412 5.60331C73.1305 6.62382 72.3288 7.89946 71.7363 9.40804C71.1351 10.9277 70.8388 12.7025 70.8388 14.7546C70.8388 16.9177 71.2483 18.7812 72.0761 20.3563C72.9039 21.9315 73.9582 23.307 75.2391 24.4717C76.52 25.6364 77.9752 26.6902 79.6046 27.6219C81.234 28.5537 82.8286 29.43 84.3883 30.2509C86.4534 31.3046 88.3442 32.3695 90.0608 33.4455C91.7774 34.5215 93.2674 35.7416 94.5308 37.0838C95.7943 38.426 96.7789 39.9457 97.4934 41.6318C98.2079 43.3289 98.5565 45.3145 98.5565 47.5884C98.5565 50.0399 98.1295 52.2695 97.2843 54.2883C96.4391 56.3071 95.2976 58.0265 93.8773 59.4574C92.457 60.8884 90.8015 62.0087 88.9281 62.8295C87.0459 63.6504 85.0505 64.0497 82.9419 64.0497L82.968 64.083Z" fill="white" stroke="white" stroke-width="0.99" stroke-miterlimit="10"/>
<path d="M278.909 8.29895V50.5059C278.909 52.7799 279.005 54.6323 279.188 56.0633C279.371 57.4942 279.649 58.6478 280.015 59.5241C280.381 60.4004 280.817 61.0327 281.322 61.4099C281.828 61.787 282.403 62.0643 283.039 62.2418V63.2068H275.127V62.2418C275.633 62.0643 276.059 61.8203 276.399 61.4986C276.748 61.1769 277.018 60.6556 277.227 59.9235C277.436 59.1914 277.593 58.2041 277.706 56.9507C277.82 55.6972 277.881 54.0777 277.881 52.0922V13.0244C277.881 10.9833 277.811 9.34165 277.671 8.12147C277.532 6.8902 277.314 5.91406 277.018 5.19305C276.722 4.46094 276.356 3.9396 275.92 3.61791C275.484 3.29623 274.944 3.0522 274.299 2.87472V1.90967H280.007L311.236 55.2424V14.6106C311.236 12.3366 311.14 10.4842 310.957 9.05324C310.774 7.62231 310.495 6.46869 310.129 5.59238C309.763 4.71607 309.328 4.09489 308.822 3.70665C308.317 3.32951 307.742 3.0522 307.106 2.87472V1.90967H315.018V2.87472C314.556 3.0522 314.146 3.29623 313.78 3.61791C313.414 3.9396 313.127 4.46094 312.918 5.19305C312.709 5.92515 312.552 6.90129 312.438 8.12147C312.325 9.34165 312.264 10.9833 312.264 13.0244V63.9057H311.367L278.9 8.29895H278.909Z" fill="white" stroke="white" stroke-width="0.99" stroke-miterlimit="10"/>
<path d="M321.901 62.2418C322.407 62.0643 322.834 61.8203 323.173 61.4986C323.513 61.1769 323.792 60.6556 324.001 59.9235C324.21 59.1914 324.367 58.2041 324.48 56.9507C324.594 55.6972 324.655 54.0777 324.655 52.0921V13.0244C324.655 10.9833 324.594 9.34164 324.48 8.12147C324.367 6.8902 324.202 5.91406 324.001 5.19305C323.792 4.46094 323.522 3.9396 323.173 3.61791C322.825 3.29623 322.407 3.0522 321.901 2.87472V1.90967H352.791L353.618 12.3255L353 12.503C351.945 9.06433 350.438 6.62398 348.495 5.19305C346.543 3.76212 344.016 3.0522 340.897 3.0522H328.515V30.0292H339.799C341.585 30.0292 343.04 29.9071 344.164 29.6742C345.288 29.4413 346.194 29.0863 346.883 28.6204C347.571 28.1545 348.059 27.5999 348.364 26.9565C348.66 26.3132 348.878 25.5811 349.018 24.7713H349.776V36.4184H349.018C348.878 35.5976 348.66 34.8766 348.364 34.2332C348.068 33.5899 347.571 33.0352 346.883 32.5693C346.194 32.1035 345.288 31.7485 344.164 31.5156C343.04 31.2826 341.585 31.1606 339.799 31.1606H328.515V58.5702C328.515 60.9107 329.43 62.0754 331.268 62.0754H342.753C345.872 62.0754 348.382 61.4209 350.281 60.1009C352.181 58.792 353.706 56.2962 354.856 52.6135L355.474 52.791L354.856 63.2068H321.91V62.2418H321.901Z" fill="white" stroke="white" stroke-width="0.99" stroke-miterlimit="10"/>
<path d="M382.234 12.1591C381.641 10.2956 381.084 8.78702 380.587 7.64449C380.082 6.50196 379.62 5.60347 379.21 4.92683C378.801 4.26128 378.417 3.7843 378.078 3.52917C377.729 3.26295 377.38 3.0522 377.014 2.87472V1.90967H385.475V2.87472C385.013 3.0522 384.674 3.27405 384.447 3.52917C384.221 3.79539 384.116 4.26128 384.133 4.92683C384.16 5.60347 384.343 6.50196 384.682 7.64449C385.031 8.78702 385.493 10.2845 386.094 12.1591L390.294 25.0375L393.875 12.4254C394.651 9.61896 395.017 7.40046 394.973 5.76986C394.929 4.13926 394.38 3.17421 393.326 2.87472V1.90967H400.41V2.87472C400.001 3.0522 399.574 3.28514 399.138 3.57354C398.702 3.86195 398.267 4.35002 397.831 5.01557C397.395 5.69221 396.951 6.6018 396.489 7.7776C396.027 8.94232 395.522 10.462 394.973 12.3366L390.913 26.7902L400.75 56.9174L413.341 12.3477C414.117 9.54131 414.448 7.345 414.334 5.73658C414.221 4.12817 413.568 3.18531 412.374 2.88581V1.92076H419.868V2.88581C419.458 3.06329 419.031 3.29623 418.595 3.58464C418.16 3.87304 417.724 4.36111 417.288 5.02666C416.853 5.7033 416.408 6.61289 415.946 7.7887C415.485 8.95341 414.979 10.4731 414.43 12.3477L400.053 63.229H398.816L388.708 32.0591L378.731 63.229H377.494L362.289 12.3477C361.74 10.4842 361.226 8.9645 360.738 7.7887C360.258 6.62398 359.823 5.7033 359.431 5.02666C359.038 4.36111 358.664 3.87304 358.298 3.58464C357.932 3.29623 357.583 3.06329 357.27 2.88581V1.92076H365.94V2.88581C365.478 3.06329 365.129 3.29623 364.877 3.58464C364.624 3.87304 364.511 4.36111 364.537 5.02666C364.563 5.7033 364.72 6.61289 365.016 7.7887C365.312 8.95341 365.739 10.4731 366.288 12.3477L379.629 57.1836L388.159 30.3841L382.243 12.1702L382.234 12.1591Z" fill="white" stroke="white" stroke-width="0.99" stroke-miterlimit="10"/>
<path d="M26.2431 168.197C22.4788 168.197 19.0457 167.499 15.9263 166.101C12.8068 164.703 10.1492 162.685 7.94467 160.056C5.74015 157.427 4.0323 154.265 2.82112 150.549C1.60123 146.844 1 142.685 1 138.07C1 133.167 1.68837 128.697 3.0651 124.671C4.44184 120.644 6.34139 117.194 8.77246 114.332C11.2035 111.47 14.079 109.263 17.4076 107.721C20.7361 106.179 24.3174 105.403 28.1687 105.403C29.8679 105.403 31.5234 105.58 33.1529 105.924C34.7823 106.279 36.2723 106.678 37.6229 107.155C38.9735 107.621 40.1585 108.12 41.1693 108.642C42.1801 109.163 42.8859 109.574 43.3041 109.873L43.583 118.98L43.034 119.158C41.7531 115.652 39.6357 112.779 36.708 110.528C33.7715 108.276 29.9463 107.155 25.2236 107.155C22.5137 107.155 19.9519 107.721 17.5208 108.864C15.0898 110.006 12.9549 111.726 11.1251 114.033C9.28655 116.34 7.8314 119.213 6.75963 122.663C5.67916 126.113 5.12149 130.139 5.07793 134.743C5.07793 138.714 5.55717 142.607 6.52437 146.434C7.49157 150.261 8.9293 153.655 10.855 156.639C12.7807 159.612 15.1769 162.03 18.0436 163.86C20.9104 165.702 24.2651 166.622 28.1252 166.622C29.9114 166.622 31.6367 166.356 33.2836 165.835C34.9304 165.313 36.4727 164.482 37.893 163.339C39.3133 162.196 40.5768 160.754 41.6747 159.002C42.7726 157.249 43.6962 155.153 44.4282 152.701L45.1165 152.79L44.0186 162.951C43.2867 163.539 42.2759 164.149 40.995 164.792C39.7142 165.435 38.2677 166.001 36.6644 166.5C35.0611 167 33.362 167.41 31.5757 167.721C29.7895 168.042 28.0206 168.197 26.2779 168.197H26.2431Z" fill="white" stroke="white" stroke-width="0.99" stroke-miterlimit="10"/>
<path d="M75.5617 168.197C72.6253 168.197 69.715 167.565 66.8221 166.312C63.9292 165.058 61.3413 163.128 59.0496 160.532C56.758 157.937 54.8846 154.664 53.4468 150.727C52.0004 146.789 51.2772 142.13 51.2772 136.761C51.2772 132.091 51.861 127.832 53.0286 123.971C54.1962 120.111 55.8343 116.817 57.943 114.077C60.0517 111.337 62.6047 109.185 65.6109 107.643C68.6171 106.101 71.9282 105.325 75.553 105.325C78.4459 105.325 81.3301 105.968 84.223 107.255C87.1159 108.542 89.7125 110.483 92.0303 113.079C94.3481 115.674 96.2128 118.958 97.6331 122.929C99.0534 126.9 99.7679 131.57 99.7679 136.939C99.7679 142.307 99.0447 147.144 97.5982 151.082C96.1518 155.019 94.2871 158.258 91.9954 160.799C89.7038 163.339 87.1159 165.202 84.223 166.4C81.3301 167.598 78.4459 168.197 75.553 168.197H75.5617ZM54.9978 132.036C54.9978 136.473 55.5555 140.765 56.6795 144.914C57.8036 149.063 59.3546 152.734 61.3238 155.951C63.2931 159.157 65.6545 161.73 68.4079 163.66C71.1614 165.591 74.1414 166.544 77.348 166.544C80.2409 166.544 82.8375 165.934 85.1553 164.703C87.4731 163.472 89.4424 161.775 91.0718 159.578C92.7012 157.393 93.9472 154.764 94.8186 151.703C95.6899 148.641 96.1256 145.236 96.1256 141.498C96.1256 137.005 95.5505 132.679 94.4091 128.542C93.2589 124.393 91.6817 120.732 89.6602 117.549C87.6387 114.365 85.2599 111.814 82.5064 109.884C79.7529 107.954 76.7729 106.989 73.5663 106.989C70.6734 106.989 68.0768 107.621 65.759 108.875C63.4412 110.128 61.4981 111.87 59.9123 114.088C58.3264 116.307 57.1152 118.947 56.27 122.008C55.4248 125.07 54.9978 128.42 54.9978 132.036Z" fill="white" stroke="white" stroke-width="0.99" stroke-miterlimit="10"/>
<path d="M107 166.367C107.505 166.189 107.932 165.945 108.272 165.624C108.612 165.302 108.891 164.781 109.1 164.049C109.309 163.316 109.466 162.329 109.579 161.076C109.692 159.822 109.753 158.203 109.753 156.217V117.161C109.753 115.12 109.692 113.478 109.579 112.258C109.466 111.026 109.3 110.05 109.1 109.329C108.891 108.597 108.621 108.076 108.272 107.754C107.932 107.432 107.505 107.188 107 107.011V106.046H116.358V107.011C115.896 107.188 115.487 107.432 115.121 107.754C114.755 108.076 114.467 108.597 114.258 109.329C114.049 110.061 113.892 111.038 113.779 112.258C113.666 113.478 113.605 115.12 113.605 117.161V162.695C113.605 165.036 114.52 166.201 116.358 166.201H127.363C128.923 166.201 130.256 166.056 131.354 165.768C132.452 165.48 133.402 165.025 134.212 164.415C135.014 163.805 135.711 163.017 136.312 162.052C136.905 161.087 137.454 159.911 137.959 158.502L138.578 158.68L138.168 167.354H107.009V166.389L107 166.367Z" fill="white" stroke="white" stroke-width="0.99" stroke-miterlimit="10"/>
<path d="M143.937 166.367C144.442 166.189 144.869 165.945 145.209 165.624C145.549 165.302 145.827 164.781 146.037 164.049C146.246 163.316 146.402 162.329 146.516 161.076C146.629 159.822 146.69 158.203 146.69 156.217V117.161C146.69 115.12 146.629 113.478 146.516 112.258C146.402 111.026 146.237 110.05 146.037 109.329C145.827 108.597 145.557 108.076 145.209 107.754C144.869 107.432 144.442 107.188 143.937 107.011V106.046H153.295V107.011C152.833 107.188 152.424 107.432 152.058 107.754C151.692 108.076 151.404 108.597 151.195 109.329C150.986 110.061 150.829 111.038 150.716 112.258C150.602 113.478 150.541 115.12 150.541 117.161V162.695C150.541 165.036 151.456 166.201 153.295 166.201H164.3C165.86 166.201 167.193 166.056 168.291 165.768C169.389 165.48 170.339 165.025 171.149 164.415C171.951 163.805 172.648 163.017 173.249 162.052C173.841 161.087 174.39 159.911 174.896 158.502L175.514 158.68L175.105 167.354H143.945V166.389L143.937 166.367Z" fill="white" stroke="white" stroke-width="0.99" stroke-miterlimit="10"/>
<path d="M180.873 166.367C181.379 166.189 181.806 165.945 182.145 165.624C182.485 165.302 182.764 164.781 182.973 164.049C183.182 163.316 183.339 162.329 183.452 161.076C183.566 159.822 183.627 158.203 183.627 156.217V117.161C183.627 115.12 183.566 113.478 183.452 112.258C183.339 111.026 183.174 110.05 182.973 109.329C182.764 108.597 182.494 108.076 182.145 107.754C181.806 107.432 181.379 107.188 180.873 107.011V106.046H211.763L212.59 116.462L211.972 116.639C210.917 113.201 209.419 110.76 207.467 109.329C205.515 107.898 202.988 107.188 199.869 107.188H187.487V134.165H198.771C200.557 134.165 202.012 134.043 203.136 133.81C204.26 133.577 205.167 133.223 205.855 132.757C206.543 132.291 207.031 131.736 207.336 131.093C207.632 130.449 207.85 129.717 207.99 128.908H208.748V140.555H207.99C207.85 139.734 207.632 139.013 207.336 138.369C207.04 137.726 206.543 137.171 205.855 136.706C205.167 136.24 204.26 135.885 203.136 135.652C202.012 135.419 200.557 135.297 198.771 135.297H187.487V162.706C187.487 165.047 188.402 166.212 190.24 166.212H201.725C204.844 166.212 207.354 165.557 209.253 164.237C211.153 162.928 212.678 160.432 213.828 156.75L214.446 156.927L213.828 167.343H180.882V166.378L180.873 166.367Z" fill="white" stroke="white" stroke-width="0.99" stroke-miterlimit="10"/>
<path d="M245.876 168.197C242.112 168.197 238.679 167.499 235.559 166.101C232.44 164.703 229.782 162.685 227.578 160.056C225.373 157.427 223.665 154.265 222.454 150.549C221.234 146.844 220.633 142.685 220.633 138.07C220.633 133.167 221.321 128.697 222.698 124.671C224.075 120.644 225.974 117.194 228.405 114.332C230.836 111.47 233.712 109.263 237.04 107.721C240.369 106.179 243.95 105.403 247.81 105.403C249.51 105.403 251.165 105.58 252.795 105.924C254.424 106.279 255.914 106.678 257.265 107.155C258.615 107.621 259.8 108.12 260.811 108.642C261.822 109.163 262.528 109.574 262.946 109.873L263.225 118.98L262.676 119.158C261.395 115.652 259.277 112.779 256.35 110.528C253.413 108.276 249.588 107.155 244.865 107.155C242.155 107.155 239.594 107.721 237.162 108.864C234.731 110.006 232.597 111.726 230.767 114.033C228.937 116.34 227.473 119.213 226.401 122.663C225.321 126.113 224.763 130.139 224.72 134.743C224.72 138.714 225.199 142.607 226.166 146.434C227.133 150.261 228.571 153.655 230.497 156.639C232.422 159.612 234.819 162.03 237.685 163.86C240.552 165.702 243.907 166.622 247.767 166.622C249.553 166.622 251.278 166.356 252.925 165.835C254.572 165.313 256.114 164.482 257.535 163.339C258.955 162.196 260.218 160.754 261.316 159.002C262.414 157.249 263.338 155.153 264.07 152.701L264.758 152.79L263.66 162.951C262.928 163.539 261.918 164.149 260.637 164.792C259.356 165.435 257.909 166.001 256.306 166.5C254.703 167 253.004 167.41 251.217 167.721C249.431 168.042 247.662 168.197 245.92 168.197H245.876Z" fill="white" stroke="white" stroke-width="0.99" stroke-miterlimit="10"/>
<path d="M281.993 166.367C282.499 166.19 282.926 165.946 283.265 165.624C283.605 165.302 283.884 164.781 284.093 164.049C284.302 163.317 284.459 162.329 284.573 161.076C284.686 159.822 284.747 158.203 284.747 156.217V107.177H279.998C278.438 107.177 277.105 107.311 276.007 107.577C274.909 107.843 273.951 108.276 273.149 108.886C272.347 109.496 271.65 110.306 271.049 111.293C270.457 112.291 269.899 113.478 269.402 114.887L268.784 114.709L269.193 106.035H304.073L304.483 114.709L303.864 114.887C303.359 113.489 302.81 112.291 302.217 111.293C301.616 110.306 300.919 109.496 300.117 108.886C299.316 108.276 298.366 107.832 297.259 107.577C296.161 107.311 294.828 107.177 293.269 107.177H288.659V156.217C288.659 158.203 288.711 159.822 288.833 161.076C288.947 162.329 289.112 163.328 289.313 164.049C289.522 164.781 289.801 165.302 290.175 165.624C290.541 165.946 290.951 166.19 291.413 166.367V167.332H281.985V166.367H281.993Z" fill="white" stroke="white" stroke-width="0.99" stroke-miterlimit="10"/>
<path d="M309.711 166.367C310.217 166.189 310.644 165.945 310.983 165.624C311.332 165.302 311.602 164.781 311.811 164.049C312.02 163.316 312.177 162.329 312.29 161.076C312.404 159.822 312.465 158.203 312.465 156.217V117.161C312.465 115.12 312.404 113.478 312.29 112.258C312.177 111.026 312.012 110.05 311.811 109.329C311.602 108.597 311.332 108.076 310.983 107.754C310.644 107.432 310.217 107.188 309.711 107.011V106.046H319.069V107.011C318.608 107.188 318.198 107.432 317.832 107.754C317.466 108.076 317.179 108.597 316.97 109.329C316.76 110.061 316.604 111.038 316.49 112.258C316.377 113.478 316.316 115.12 316.316 117.161V156.217C316.316 158.203 316.377 159.822 316.49 161.076C316.604 162.329 316.769 163.328 316.97 164.049C317.179 164.781 317.466 165.302 317.832 165.624C318.198 165.945 318.608 166.189 319.069 166.367V167.332H309.711V166.367Z" fill="white" stroke="white" stroke-width="0.99" stroke-miterlimit="10"/>
<path d="M350.569 168.197C347.632 168.197 344.722 167.565 341.829 166.312C338.936 165.058 336.348 163.128 334.057 160.532C331.765 157.937 329.892 154.664 328.454 150.727C327.008 146.789 326.284 142.13 326.284 136.761C326.284 132.091 326.868 127.832 328.036 123.971C329.203 120.122 330.841 116.817 332.95 114.077C335.059 111.337 337.612 109.185 340.618 107.643C343.624 106.101 346.935 105.325 350.56 105.325C353.453 105.325 356.337 105.968 359.23 107.255C362.123 108.542 364.72 110.483 367.037 113.079C369.355 115.674 371.22 118.958 372.64 122.929C374.061 126.9 374.775 131.57 374.775 136.939C374.775 142.307 374.052 147.144 372.605 151.082C371.159 155.019 369.294 158.258 367.003 160.799C364.711 163.339 362.123 165.202 359.23 166.4C356.337 167.598 353.453 168.197 350.56 168.197H350.569ZM329.996 132.036C329.996 136.473 330.554 140.765 331.678 144.914C332.802 149.063 334.353 152.734 336.322 155.951C338.292 159.157 340.653 161.73 343.406 163.66C346.16 165.591 349.14 166.544 352.346 166.544C355.239 166.544 357.836 165.934 360.154 164.703C362.472 163.472 364.441 161.775 366.07 159.578C367.7 157.382 368.946 154.764 369.817 151.703C370.688 148.641 371.124 145.236 371.124 141.498C371.124 137.005 370.549 132.679 369.407 128.542C368.257 124.393 366.68 120.732 364.659 117.549C362.646 114.365 360.258 111.814 357.505 109.884C354.751 107.954 351.771 106.989 348.565 106.989C345.672 106.989 343.075 107.621 340.757 108.875C338.44 110.128 336.497 111.87 334.911 114.088C333.325 116.307 332.114 118.947 331.268 122.008C330.423 125.07 329.996 128.42 329.996 132.036Z" fill="white" stroke="white" stroke-width="0.99" stroke-miterlimit="10"/>
<path d="M384.891 112.424V154.631C384.891 156.905 384.987 158.757 385.17 160.188C385.353 161.619 385.632 162.773 385.998 163.649C386.364 164.526 386.799 165.158 387.305 165.535C387.81 165.912 388.385 166.189 389.021 166.367V167.332H381.11V166.367C381.615 166.189 382.042 165.945 382.382 165.624C382.73 165.302 383 164.781 383.209 164.049C383.419 163.316 383.575 162.329 383.689 161.076C383.802 159.822 383.863 158.203 383.863 156.217V117.161C383.863 115.12 383.793 113.478 383.654 112.258C383.514 111.026 383.297 110.05 383 109.329C382.704 108.597 382.338 108.076 381.902 107.754C381.467 107.432 380.927 107.188 380.282 107.011V106.046H385.989L417.218 159.379V118.747C417.218 116.473 417.122 114.62 416.94 113.189C416.757 111.759 416.478 110.605 416.112 109.729C415.746 108.852 415.31 108.231 414.805 107.843C414.299 107.466 413.724 107.188 413.088 107.011V106.046H421V107.011C420.538 107.188 420.129 107.432 419.763 107.754C419.397 108.076 419.109 108.597 418.9 109.329C418.691 110.061 418.534 111.038 418.421 112.258C418.308 113.478 418.247 115.12 418.247 117.161V168.042H417.349L384.882 112.435L384.891 112.424Z" fill="white" stroke="white" stroke-width="0.99" stroke-miterlimit="10"/>
</svg>
