<svg width="32" height="32" viewBox="0 0 32 32" fill="none" xmlns="http://www.w3.org/2000/svg">
<path d="M29.3442 1H2.65583C2.21668 1 1.79551 1.17445 1.48498 1.48498C1.17445 1.79551 1 2.21668 1 2.65583V29.3446C1.00011 29.7837 1.17461 30.2047 1.48513 30.5152C1.79565 30.8256 2.21675 31 2.65583 31H17.0237V19.3825H13.1142V14.855H17.0237V11.5158C17.0237 7.64083 19.3904 5.53125 22.8471 5.53125C24.5029 5.53125 25.9258 5.65417 26.3408 5.70958V9.75917L23.9433 9.76042C22.0633 9.76042 21.6996 10.6537 21.6996 11.9646V14.8554H26.1829L25.5992 19.3829H21.6996V31H29.3446C29.7837 30.9999 30.2047 30.8254 30.5152 30.5149C30.8256 30.2044 31 29.7832 31 29.3442V2.65583C31 2.21668 30.8255 1.79551 30.515 1.48498C30.2045 1.17445 29.7833 1 29.3442 1Z" stroke="#F7D9B7" stroke-width="2"/>
</svg>
