<svg width="30" height="30" viewBox="0 0 30 30" fill="none" xmlns="http://www.w3.org/2000/svg">
<path d="M8.3335 23V21.6667C8.3335 19.8986 9.03587 18.2029 10.2861 16.9526C11.5364 15.7024 13.2321 15 15.0002 15C16.7683 15 18.464 15.7024 19.7142 16.9526C20.9645 18.2029 21.6668 19.8986 21.6668 21.6667V23" stroke="#232020" stroke-width="1.5" stroke-linecap="round"/>
<path d="M15 15C16.0609 15 17.0783 14.5786 17.8284 13.8284C18.5786 13.0783 19 12.0609 19 11C19 9.93913 18.5786 8.92172 17.8284 8.17157C17.0783 7.42143 16.0609 7 15 7C13.9391 7 12.9217 7.42143 12.1716 8.17157C11.4214 8.92172 11 9.93913 11 11C11 12.0609 11.4214 13.0783 12.1716 13.8284C12.9217 14.5786 13.9391 15 15 15Z" stroke="#232020" stroke-width="1.5" stroke-linecap="round" stroke-linejoin="round"/>
<path d="M15.0001 28.3333C22.3639 28.3333 28.3334 22.3638 28.3334 15C28.3334 7.63619 22.3639 1.66666 15.0001 1.66666C7.63628 1.66666 1.66675 7.63619 1.66675 15C1.66675 22.3638 7.63628 28.3333 15.0001 28.3333Z" stroke="#232020" stroke-width="1.5"/>
</svg>
