<svg width="48" height="48" viewBox="0 0 48 48" fill="none" xmlns="http://www.w3.org/2000/svg">
<path d="M19.9954 13.5V13.5C19.9315 13.4997 19.8681 13.5122 19.8091 13.5367C19.75 13.5612 19.6965 13.5972 19.6516 13.6427L19.6476 13.6467C19.554 13.7404 19.5014 13.8675 19.5014 14C19.5014 14.1323 19.5538 14.2592 19.6472 14.3529L19.9954 13.5ZM19.9954 13.5L20.0048 13.5C20.0687 13.4997 20.1321 13.5122 20.1911 13.5367C20.2501 13.5612 20.3037 13.5972 20.3486 13.6427L20.3486 13.6427L20.353 13.6471L30.3526 23.6467C30.3526 23.6468 30.3527 23.6468 30.3528 23.6469C30.4463 23.7406 30.4988 23.8676 30.4988 24C30.4988 24.1324 30.4463 24.2594 30.3528 24.3531C30.3527 24.3532 30.3526 24.3533 30.3526 24.3533L20.3688 34.3371C20.2752 34.4199 20.1539 34.4647 20.0287 34.4625C19.8992 34.4602 19.7756 34.4077 19.684 34.3161C19.5924 34.2245 19.5399 34.1009 19.5376 33.9714C19.5354 33.8462 19.5802 33.7249 19.663 33.6313L28.5872 24.7071L29.2943 24L28.5872 23.2929L19.6476 14.3533L19.9954 13.5Z" fill="black" stroke="black" stroke-width="2"/>
</svg>
